<?xml version="1.0" standalone="no"?><!DOCTYPE svg PUBLIC "-//W3C//DTD SVG 1.1//EN" "http://www.w3.org/Graphics/SVG/1.1/DTD/svg11.dtd"><svg t="1523415334488" class="icon" style="" viewBox="0 0 1024 1024" version="1.1" xmlns="http://www.w3.org/2000/svg" p-id="1080" xmlns:xlink="http://www.w3.org/1999/xlink" width="200" height="200"><defs><style type="text/css"></style></defs><path d="M1014.087197 485.13218 557.680277 34.542561c0 0-18.101038-21.042215-45.706574-21.042215-29.919723 0-45.658131 21.053287-45.658131 21.053287L9.908651 485.180623c-12.629758 12.451211-12.629758 32.622837 0 45.079585 12.553633 12.419377 30.319723 2.909343 42.921799-9.498962l30.613149-30.256055L513.287197 74.080277l457.876817 450.206228c12.553633 8.109343 31.952941 16.809689 42.923183 5.951557C1026.722491 517.80346 1026.722491 497.604152 1014.087197 485.13218L1014.087197 485.13218zM849.980623 464.391696c-14.024913 0-25.454671 11.213841-25.497578 25.054671l0 0.053979 0 0.102422L824.483045 909.757785c0 27.839446-22.869204 50.395848-51.006228 50.395848l-113.424221 0L660.052595 717.111419c0-52.859516-43.343945-95.67474-96.896886-95.67474L460.844291 621.436678c-53.558478 0-96.896886 42.815225-96.896886 95.67474l0 243.042215-113.424221 0c-28.131488 0-51.000692-22.556401-51.000692-50.395848L199.522491 489.526644c-0.027682-13.89481-11.451903-25.129412-25.475433-25.129412-14.078893 0-25.476817 11.234602-25.530796 25.129412l0 425.281661c0 52.870588 43.371626 95.691349 96.896886 95.691349L414.920415 1010.499654 414.920415 722.145329c0-27.828374 22.863668-50.368166 50.999308-50.368166l92.160554 0c28.130104 0 51.000692 22.538408 51.000692 50.368166l0 288.348789 169.507266 0c53.52526 0 96.891349-42.815225 96.891349-95.685813L875.479585 489.446367C875.397924 475.605536 864.033218 464.391696 849.980623 464.391696L849.980623 464.391696zM849.980623 464.391696" p-id="1081"></path></svg>